HIERARCHY
ROOT Hips
{
	OFFSET -0.001795 -0.223333 0.028219
	CHANNELS 6 Xposition Yposition Zposition Zrotation Yrotation Xrotation 
	JOINT LeftUpLeg
	{
		OFFSET 0.069520 -0.091406 -0.006815
		CHANNELS 3 Zrotation Yrotation Xrotation
		JOINT LeftLeg
		{
			OFFSET 0.034277 -0.375199 -0.004496
			CHANNELS 3 Zrotation Yrotation Xrotation
			JOINT LeftFoot
			{
				OFFSET -0.013596 -0.397961 -0.043693
				CHANNELS 3 Zrotation Yrotation Xrotation
				JOINT LeftToe
				{
					OFFSET 0.026358 -0.055791 0.119288
					CHANNELS 3 Zrotation Yrotation Xrotation
					End Site
					{
						OFFSET 0.000000 0.000000 0.000000
					}
				}
			}
		}
	}
	JOINT RightUpLeg
	{
		OFFSET -0.067670 -0.090522 -0.004320
		CHANNELS 3 Zrotation Yrotation Xrotation
		JOINT RightLeg
		{
			OFFSET -0.038290 -0.382569 -0.008850
			CHANNELS 3 Zrotation Yrotation Xrotation
			JOINT RightFoot
			{
				OFFSET 0.015774 -0.398415 -0.042312
				CHANNELS 3 Zrotation Yrotation Xrotation
				JOINT RightToe
				{
					OFFSET -0.025372 -0.048144 0.123348
					CHANNELS 3 Zrotation Yrotation Xrotation
					End Site
					{
						OFFSET 0.000000 0.000000 0.000000
					}
				}
			}
		}
	}
	JOINT Spine
	{
		OFFSET -0.002533 0.108963 -0.026696
		CHANNELS 3 Zrotation Yrotation Xrotation
		JOINT Spine1
		{
			OFFSET 0.005487 0.135180 0.001092
			CHANNELS 3 Zrotation Yrotation Xrotation
			JOINT Spine2
			{
				OFFSET 0.001457 0.052922 0.025425
				CHANNELS 3 Zrotation Yrotation Xrotation
				JOINT Neck
				{
					OFFSET -0.002778 0.213870 -0.042857
					CHANNELS 3 Zrotation Yrotation Xrotation
					JOINT Head
					{
						OFFSET 0.005152 0.064970 0.051349
						CHANNELS 3 Zrotation Yrotation Xrotation
						End Site
						{
							OFFSET 0.000000 0.000000 0.000000
						}
					}
				}
				JOINT LeftShoulder
				{
					OFFSET 0.078845 0.121749 -0.034090
					CHANNELS 3 Zrotation Yrotation Xrotation
					JOINT LeftArm
					{
						OFFSET 0.090977 0.030469 -0.008868
						CHANNELS 3 Zrotation Yrotation Xrotation
						JOINT LeftForeArm
						{
							OFFSET 0.259612 -0.012772 -0.027456
							CHANNELS 3 Zrotation Yrotation Xrotation
							JOINT LeftHand
							{
								OFFSET 0.249234 0.008986 -0.001171
								CHANNELS 3 Zrotation Yrotation Xrotation
								End Site
								{
									OFFSET 0.000000 0.000000 0.000000
								}
							}
						}
					}
				}
				JOINT RightShoulder
				{
					OFFSET -0.081759 0.118833 -0.038615
					CHANNELS 3 Zrotation Yrotation Xrotation
					JOINT RightArm
					{
						OFFSET -0.096012 0.032551 -0.009143
						CHANNELS 3 Zrotation Yrotation Xrotation
						JOINT RightForeArm
						{
							OFFSET -0.253742 -0.013329 -0.021401
							CHANNELS 3 Zrotation Yrotation Xrotation
							JOINT RightHand
							{
								OFFSET -0.255298 0.007772 -0.005559
								CHANNELS 3 Zrotation Yrotation Xrotation
								End Site
								{
									OFFSET 0.000000 0.000000 0.000000
								}
							}
						}
					}
				}
			}
		}
	}
}
MOTION
Frames: 8
Frame Time: 0.050000
0.005828 0.953353 -0.013491 0.164125 0.826924 2.817364 9.146523 -0.218723 -2.850086 -4.038240 0.432594 0.363476 6.628757 16.323991 23.535083 0.000000 0.000000 0.000000 -9.654992 0.307365 -2.843556 3.045176 -0.308070 1.468492 -14.040535 -27.253562 28.822074 0.000000 0.000000 0.000000 5.580092 -0.623685 5.842000 -7.840651 2.486739 -24.086078 -3.322132 4.281558 30.268795 11.979541 -5.256354 -24.416784 0.000000 0.000000 0.000000 -4.102982 -0.400964 -0.228036 -31.271290 6.628009 -6.693857 -90.611699 -37.564623 38.495126 0.000000 0.000000 0.000000 16.924306 -12.351823 -6.604201 34.136638 -7.730574 -7.132041 83.074095 27.832032 27.068622 0.000000 0.000000 0.000000 
0.005748 0.953482 -0.013823 0.102067 0.528610 2.697298 9.215559 -0.206568 -2.602181 -4.074296 0.439192 0.235675 6.763382 16.459798 23.648075 0.000000 0.000000 0.000000 -9.561582 0.311600 -2.794609 3.115982 -0.317154 1.226898 -14.361374 -27.617533 29.240468 0.000000 0.000000 0.000000 5.600351 -0.660229 6.265547 -7.916618 2.482895 -24.469728 -3.317740 4.430204 30.230088 11.952320 -5.277864 -24.251982 0.000000 0.000000 0.000000 -4.278203 -0.434619 -0.228154 -31.590129 6.616161 -6.767284 -90.818918 -38.098904 39.270666 0.000000 0.000000 0.000000 17.221282 -12.101957 -6.509590 34.072759 -7.543648 -7.084363 82.637105 27.947719 26.943076 0.000000 0.000000 0.000000 
0.005732 0.953559 -0.014189 0.141778 0.373487 2.553191 9.147987 -0.198766 -2.469663 -4.054150 0.438731 0.296160 6.827608 16.524408 23.706989 0.000000 0.000000 0.000000 -9.610037 0.311484 -2.710054 2.897318 -0.285017 1.620979 -13.477682 -26.686040 28.211228 0.000000 0.000000 0.000000 5.575817 -0.681363 6.556520 -7.984613 2.497860 -24.468252 -3.270033 4.573439 30.069107 11.976978 -5.314288 -24.061611 0.000000 0.000000 0.000000 -4.315190 -0.473500 -0.220777 -31.790399 6.432893 -6.763682 -90.951573 -38.608965 39.906871 0.000000 0.000000 0.000000 17.296186 -11.922455 -6.408921 33.966396 -7.274404 -6.998660 82.579769 28.027743 27.004401 0.000000 0.000000 0.000000 
0.005754 0.953920 -0.014757 0.051539 0.273950 2.350691 9.024622 -0.188373 -2.128562 -3.688593 0.399825 0.061828 6.850937 16.550138 23.801500 0.000000 0.000000 0.000000 -9.626098 0.305951 -2.475598 2.776046 -0.269362 1.657299 -12.670373 -25.731924 27.874124 0.000000 0.000000 0.000000 5.688891 -0.736162 7.108393 -8.040966 2.501609 -24.661321 -3.272850 4.683458 30.037388 11.905337 -5.277702 -23.960433 0.000000 0.000000 0.000000 -4.559876 -0.558427 -0.212792 -31.921922 6.108802 -6.719463 -90.786341 -39.207651 40.448842 0.000000 0.000000 0.000000 17.297546 -11.747815 -6.294267 34.072825 -6.987412 -6.966536 82.513208 28.102458 27.108273 0.000000 0.000000 0.000000 
0.005765 0.954051 -0.015620 0.131180 0.405661 2.392211 9.057335 -0.192996 -2.195417 -3.881288 0.419613 -0.053506 6.758565 16.455419 23.840916 0.000000 0.000000 0.000000 -9.700055 0.305899 -2.615422 2.560074 -0.243901 1.671704 -12.535220 -25.501734 28.339729 0.000000 0.000000 0.000000 5.831138 -0.771429 7.355548 -8.120453 2.519447 -24.717178 -3.304489 4.622907 29.987302 12.041575 -5.343038 -24.040940 0.000000 0.000000 0.000000 -4.929263 -0.749186 -0.172531 -32.003805 5.982589 -6.702873 -90.410622 -39.513302 40.538846 0.000000 0.000000 0.000000 17.404358 -11.680326 -6.268810 33.965373 -6.939423 -6.930925 82.674780 27.994136 27.065592 0.000000 0.000000 0.000000 
0.005724 0.954015 -0.016587 0.176575 0.696856 2.329437 9.091513 -0.198400 -2.217872 -3.982133 0.427842 -0.115737 6.592298 16.283197 23.763752 0.000000 0.000000 0.000000 -9.794702 0.296758 -2.618326 2.460673 -0.235529 1.570459 -12.607916 -25.473573 29.191785 0.000000 0.000000 0.000000 5.943134 -0.807361 7.638236 -8.063383 2.511408 -24.676316 -3.468788 4.491168 30.054061 12.205032 -5.397764 -24.282807 0.000000 0.000000 0.000000 -5.427114 -1.015100 -0.113615 -32.093838 5.599269 -6.638583 -89.562747 -40.126979 40.636630 0.000000 0.000000 0.000000 17.798540 -11.625112 -6.275355 33.957687 -6.733364 -6.901280 82.555234 28.008461 27.050967 0.000000 0.000000 0.000000 
0.005645 0.953601 -0.017366 0.170442 0.900509 2.232504 9.157461 -0.199825 -2.096479 -4.046348 0.432482 -0.302802 6.493266 16.174490 23.604018 0.000000 0.000000 0.000000 -9.813303 0.288762 -2.619360 2.399223 -0.231032 1.485091 -12.832193 -25.644060 29.987475 0.000000 0.000000 0.000000 6.093179 -0.836406 7.819835 -8.078152 2.524074 -24.595600 -3.486776 4.374702 30.126536 12.223956 -5.436308 -24.172677 0.000000 0.000000 0.000000 -6.076532 -1.405115 -0.012469 -32.279732 5.288011 -6.611284 -88.548651 -40.266650 40.166002 0.000000 0.000000 0.000000 17.987109 -11.670201 -6.322362 34.305782 -6.650048 -6.962619 82.353943 27.906760 26.912780 0.000000 0.000000 0.000000 
0.005584 0.953171 -0.017830 0.207538 1.172818 2.018711 9.176749 -0.199993 -1.963896 -4.103927 0.436378 -0.277624 6.355388 16.025074 23.399969 0.000000 0.000000 0.000000 -9.805766 0.272778 -2.361093 2.355470 -0.226930 1.514413 -12.994674 -25.810572 29.972551 0.000000 0.000000 0.000000 6.192529 -0.848173 7.880135 -8.127904 2.555583 -24.282652 -3.584191 3.945893 30.218318 12.104658 -5.427795 -24.119583 0.000000 0.000000 0.000000 -6.780228 -1.696328 0.072860 -32.445202 5.048712 -6.606257 -87.536953 -40.551279 39.971363 0.000000 0.000000 0.000000 18.360751 -11.483000 -6.310715 34.448388 -6.371097 -6.939237 81.914046 27.782874 26.521018 0.000000 0.000000 0.000000 
